<svg width="26" height="21" viewBox="0 0 26 21" fill="none" xmlns="http://www.w3.org/2000/svg">
<g id="Group 1175">
<path id="Vector" fill-rule="evenodd" clip-rule="evenodd" d="M7.507 3.40504L13.6163 3.0399C10.3895 2.93006 8.47475 2.93006 7.87213 2.99537L6.98155 3.18833C6.87171 3.2952 7.06764 3.36051 7.51887 3.40504H7.507Z" fill="#808285"/>
<path id="Vector_2" fill-rule="evenodd" clip-rule="evenodd" d="M6.15051 4.93083L16.1962 4.71412L6.47408 4.37274C5.18274 4.28665 4.47326 4.37274 4.36639 4.60725C4.17343 4.93083 4.79683 5.0377 6.14754 4.93083H6.15051Z" fill="#808285"/>
<path id="Vector_3" fill-rule="evenodd" clip-rule="evenodd" d="M2.60336 6.86355L17.7669 6.32623L4.11141 6.15405C3.07834 6.15405 2.54102 6.26092 2.54102 6.47763L2.60633 6.86355H2.60336Z" fill="#808285"/>
<path id="Vector_4" fill-rule="evenodd" clip-rule="evenodd" d="M3.61216 8.88799L18.841 8.19928L2.35942 7.94101C1.92898 7.98554 1.69148 8.0924 1.64992 8.30911C1.58462 8.78112 2.24365 8.9533 3.62701 8.88799H3.61216Z" fill="#808285"/>
<path id="Vector_5" fill-rule="evenodd" clip-rule="evenodd" d="M1.41812 10.6306L19.4434 10.1794L2.77477 9.70735C1.69717 9.70735 1.13906 9.87953 1.05297 10.2862C1.03219 10.4584 1.15985 10.6098 1.41812 10.6306Z" fill="#808285"/>
<path id="Vector_6" fill-rule="evenodd" clip-rule="evenodd" d="M1.26981 12.4594L6.96951 12.3941L7.76509 11.5035H2.06242C1.20153 11.5035 0.812637 11.6965 0.922475 12.0972C0.919846 12.1933 0.954042 12.2868 1.01805 12.3585C1.08206 12.4303 1.17106 12.4748 1.26684 12.4831L1.26981 12.4594Z" fill="#808285"/>
<path id="Vector_7" fill-rule="evenodd" clip-rule="evenodd" d="M2.53757 14.3739L6.15035 14.1157L6.62532 13.2993L2.38618 13.3617C1.56982 13.3617 1.16016 13.5338 1.16016 13.8574C1.16016 14.1157 1.26999 14.2671 1.45702 14.2879L2.53164 14.3739H2.53757Z" fill="#808285"/>
<path id="Vector_8" fill-rule="evenodd" clip-rule="evenodd" d="M3.09566 16.0959L12.2805 15.7278L11.6363 15.0836L2.77506 15.1489L1.84886 15.2558C1.7914 15.305 1.75035 15.3707 1.73125 15.4439C1.71215 15.5171 1.7159 15.5944 1.74198 15.6654C1.80729 16.0514 2.27929 16.2028 3.09566 16.0959Z" fill="#808285"/>
<path id="Vector_9" fill-rule="evenodd" clip-rule="evenodd" d="M13.5062 17.2358L4.3659 17.1705C3.24674 17.1705 2.75099 17.2981 2.77474 17.6217C2.88161 18.0314 3.505 18.1382 4.68946 18.0314L14.0672 17.8147L13.5062 17.2358Z" fill="#808285"/>
<path id="Vector_10" fill-rule="evenodd" clip-rule="evenodd" d="M14.6462 19.1059L4.81719 19.0347C4.60346 19.0347 4.49658 19.1208 4.49658 19.2929C4.49658 19.6165 5.18233 19.7649 6.53897 19.6789L15.614 19.3582L14.6462 19.1208V19.1059Z" fill="#93989C"/>
<path id="Vector_11" fill-rule="evenodd" clip-rule="evenodd" d="M8.45347 21L13.8296 20.8278L8.18926 20.6111C7.43524 20.5042 7.04932 20.5695 7.04932 20.8278L8.44753 21H8.45347Z" fill="#93989C"/>
<path id="Vector_12" fill-rule="evenodd" clip-rule="evenodd" d="M23.7332 0.8431C21.7769 1.68321 17.9712 3.89778 12.3338 7.55508C14.9135 6.09314 17.6033 4.83459 20.3787 3.79091L24.79 2.32739L25.6479 2.3927C25.8201 2.49957 25.5618 2.65097 24.9592 2.82315C23.9291 3.14672 22.0144 3.94231 19.218 5.23067C15.9911 6.69419 14.1417 7.72726 13.6044 8.37144L17.324 8.45753C17.0989 8.76683 16.8092 9.02343 16.4749 9.20951C16.1407 9.39559 15.77 9.50671 15.3885 9.53513L14.679 9.55591C15.4983 10.8888 16.8312 11.6339 18.6569 11.7497L19.9067 11.815L19.972 12.7828L14.7443 13.2993L19.7909 13.6199C19.8562 14.3739 19.8354 14.7598 19.7286 14.7598H14.6285L19.3189 15.4486L19.0398 16.6538L14.8274 16.9774L18.5916 17.3841L17.701 18.5893L15.4004 18.8862L17.1815 19.2721L15.2222 20.6258C14.1089 19.5403 13.0667 18.3841 12.1023 17.1644L10.7278 15.2497L8.83384 15.6593C10.4903 14.4719 11.372 13.5813 11.5234 13.0351C11.52 12.3271 11.4475 11.6212 11.3067 10.9274L10.618 11.6369C10.5111 10.6038 10.3389 9.95964 10.1667 9.70137L9.90847 10.497L8.77149 11.4855L9.58785 11.4202C9.0921 14.175 7.97294 15.9384 6.2096 16.6479L5.17653 15.5732L5.88603 14.9261L4.8114 15.2497L4.59766 14.9261C5.65151 13.1865 6.46788 11.9575 7.11206 11.248L10.2321 8.41004C11.7885 7.08939 13.4264 5.86788 15.1361 4.75273C19.117 2.34224 21.9995 0.816384 23.7451 0.1722C24.4338 -0.0860668 24.7128 -0.0445091 24.5406 0.234538L23.7451 0.828256L23.7332 0.8431Z" fill="#7A003C"/>
</g>
</svg>
