<svg width="71" height="32" viewBox="0 0 71 32" fill="none" xmlns="http://www.w3.org/2000/svg">
<g id="Group 187">
<path id="Vector" d="M33.8496 5.28631C34.2074 1.8875 12.6887 5.06243 12.6887 5.06243C30.5048 -1.48282 58.7228 1.0555 58.7228 1.0555C58.7228 1.0555 30.4845 13.9628 6.7002 19.1453C6.7002 19.1453 11.8935 17.5782 20.4818 13.4166C20.4818 13.4166 33.271 7.35816 33.8496 5.28631Z" fill="url(#paint0_linear_407_2684)"/>
<path id="Vector_2" d="M6.81836 18.946C32.5639 7.25081 31.4522 5.63974 31.4522 5.63974C31.5577 3.73396 12.509 5.63974 12.509 5.63974C12.509 5.63974 22.0167 5.74557 21.6735 8.62743C21.6711 8.62743 22.5085 11.029 6.81836 18.946Z" fill="url(#paint1_linear_407_2684)"/>
<path id="Vector_3" d="M33.7926 5.43211C33.816 5.38572 33.8351 5.3372 33.8494 5.2872C34.2072 1.88839 12.6885 5.06333 12.6885 5.06333C12.6885 5.06333 31.2016 2.83843 33.7926 5.43211Z" fill="url(#paint2_linear_407_2684)"/>
<path id="Vector_4" d="M6.7041 19.1454C6.7041 19.1454 35.5916 16.6046 58.7267 1.05554C58.7243 1.05554 30.4852 13.9629 6.7041 19.1454Z" fill="url(#paint3_linear_407_2684)"/>
<path id="Vector_5" d="M6.7041 19.1453C6.7041 19.1453 6.91751 19.081 7.32891 18.9442L6.7041 19.1453Z" stroke="#231F20" stroke-width="0.224282" stroke-miterlimit="10"/>
<path id="Vector_6" d="M6.81836 18.946C6.81836 18.946 29.069 10.2964 31.3192 5.95728C30.6603 6.82102 26.9536 9.79895 6.81836 18.946Z" fill="url(#paint4_linear_407_2684)"/>
<path id="Vector_7" d="M21.6791 8.46697C21.6564 5.74141 12.5098 5.63965 12.5098 5.63965C12.5098 5.63965 19.2602 5.99296 21.6791 8.46697Z" fill="url(#paint5_linear_407_2684)"/>
<path id="Vector_8" d="M16.2398 11.4063C18.4483 10.9443 20.0535 9.6791 19.8251 8.58052C19.5968 7.48193 17.6213 6.96593 15.4129 7.428C13.2044 7.89007 11.5992 9.15523 11.8276 10.2538C12.0559 11.3524 14.0314 11.8684 16.2398 11.4063Z" fill="url(#paint6_linear_407_2684)"/>
<path id="Vector_9" d="M19.8481 8.73736C19.8481 8.72515 19.8433 8.71375 19.84 8.70154C19.9301 9.77043 18.3632 10.9598 16.2372 11.4043C14.03 11.8634 12.0582 11.3506 11.8262 10.2516C11.8093 10.1694 11.8025 10.0855 11.8059 10.0016C11.7918 10.14 11.7989 10.2798 11.827 10.416C12.0883 11.6738 14.099 12.3177 16.3118 11.8545C18.5247 11.3913 20.111 9.99512 19.8481 8.73736Z" fill="#871919"/>
<path id="Vector_10" d="M46.2912 28.8379L46.1939 29.2873H45.2331L45.152 29.6634H46.0908L45.9983 30.0891H45.0546L44.8826 30.9415H44.2334L44.6813 28.8379H46.2912Z" fill="#414141"/>
<path id="Vector_11" d="M47.2315 28.8379L46.7852 30.9415H46.2002L46.6481 28.8379H47.2315Z" fill="#414141"/>
<path id="Vector_12" d="M49.0836 29.4193L48.1212 31.1354C48.0567 31.2664 47.9642 31.3815 47.8502 31.4724C47.7549 31.5318 47.6442 31.5616 47.5321 31.5579C47.3876 31.558 47.2437 31.5383 47.1045 31.4993L47.1516 31.1061C47.2121 31.1309 47.2769 31.1436 47.3422 31.1435C47.455 31.1435 47.5451 31.076 47.6108 30.9417L47.3187 29.4193H47.8924L47.9735 30.4776H47.9792L48.4961 29.4193H49.0836Z" fill="#414141"/>
<path id="Vector_13" d="M52.0414 28.8379L51.944 29.2873H50.9833L50.9021 29.6634H51.8418L51.7485 30.0891H50.8047L50.6335 30.9415H49.9844L50.4315 28.8379H52.0414Z" fill="#414141"/>
<path id="Vector_14" d="M52.1026 29.8368C52.1189 29.7676 52.1489 29.7023 52.1907 29.6449C52.2325 29.5874 52.2853 29.5389 52.346 29.5022C52.4715 29.4241 52.6658 29.385 52.9287 29.385C53.2273 29.385 53.4288 29.4225 53.5332 29.4974C53.5842 29.5343 53.6252 29.5834 53.6525 29.6403C53.6799 29.6971 53.6927 29.7599 53.6898 29.823C53.6787 29.9827 53.6515 30.1409 53.6087 30.2952C53.5703 30.4368 53.5458 30.5818 53.5356 30.7283C53.536 30.8002 53.5487 30.8715 53.5729 30.9391H53.0049C52.9923 30.8822 52.9858 30.824 52.9855 30.7657C52.8482 30.8988 52.6651 30.9738 52.4742 30.9749C52.2827 30.9749 52.1497 30.9301 52.0612 30.8398C51.9799 30.7562 51.9347 30.6439 51.9355 30.5272C51.9317 30.4708 51.9398 30.4142 51.959 30.3611C51.9783 30.3079 52.0084 30.2594 52.0474 30.2186C52.1251 30.1465 52.2207 30.0967 52.3241 30.0745C52.4726 30.0436 52.6227 30.0213 52.7737 30.0078C52.8874 29.9989 53.0002 29.9812 53.1112 29.9549C53.1208 29.9212 53.1265 29.8865 53.1283 29.8515C53.1281 29.8322 53.1225 29.8134 53.1121 29.7971C53.1018 29.7809 53.0872 29.7678 53.0699 29.7595C53.0227 29.7346 52.9697 29.7228 52.9165 29.7253C52.8606 29.7229 52.8049 29.7341 52.7542 29.7579C52.704 29.7897 52.6655 29.8372 52.6447 29.893L52.1026 29.8368ZM53.0463 30.2602C52.7785 30.3047 52.6214 30.3443 52.5749 30.379C52.5539 30.3919 52.5365 30.4098 52.5241 30.4311C52.5118 30.4524 52.505 30.4765 52.5043 30.5011C52.5034 30.523 52.5074 30.5447 52.5161 30.5647C52.5249 30.5848 52.538 30.6025 52.5546 30.6167C52.5912 30.6458 52.6369 30.6609 52.6836 30.6591C52.7645 30.656 52.8417 30.6239 52.9011 30.5687C52.9845 30.4871 53.0361 30.3782 53.0463 30.2618V30.2602Z" fill="#414141"/>
<path id="Vector_15" d="M55.5227 29.7839L54.9782 29.8425C54.962 29.7505 54.8971 29.7049 54.7737 29.7049C54.717 29.7007 54.6604 29.7141 54.6114 29.7432C54.5956 29.7525 54.5823 29.7657 54.5728 29.7814C54.5633 29.7972 54.5579 29.8151 54.5571 29.8335C54.557 29.8512 54.5613 29.8686 54.5697 29.8841C54.5781 29.8996 54.5902 29.9127 54.6049 29.9223C54.6857 29.9596 54.7726 29.9816 54.8614 29.9874C55.0853 30.0211 55.2344 30.0715 55.3085 30.1388C55.3454 30.1731 55.3743 30.2151 55.3934 30.2617C55.4125 30.3084 55.4211 30.3587 55.4188 30.4091C55.4179 30.4887 55.3976 30.5669 55.3597 30.6369C55.3218 30.7068 55.2675 30.7664 55.2014 30.8104C55.0569 30.9222 54.8362 30.9779 54.5392 30.9773C54.2974 30.9773 54.1202 30.9418 54.0077 30.8707C53.9498 30.8319 53.9018 30.7801 53.8675 30.7193C53.8333 30.6584 53.8137 30.5904 53.8105 30.5206L54.385 30.471C54.3937 30.5275 54.424 30.5784 54.4694 30.6129C54.5149 30.6474 54.5719 30.6628 54.6285 30.6558C54.6876 30.6568 54.7461 30.6425 54.7981 30.6143C54.8202 30.6034 54.8389 30.5865 54.8518 30.5655C54.8647 30.5444 54.8714 30.5201 54.8711 30.4954C54.8733 30.476 54.8694 30.4564 54.86 30.4393C54.8505 30.4222 54.836 30.4085 54.8184 30.4001C54.7536 30.3766 54.6863 30.3608 54.6179 30.3529C54.3923 30.3179 54.239 30.2642 54.1595 30.1901C54.1207 30.1567 54.0898 30.115 54.0691 30.0681C54.0483 30.0212 54.0382 29.9703 54.0394 29.919C54.0413 29.8246 54.0728 29.7331 54.1294 29.6577C54.1988 29.5658 54.2932 29.496 54.4013 29.4566C54.5447 29.4033 54.6971 29.3782 54.85 29.3825C55.0105 29.3739 55.1706 29.4046 55.3166 29.4721C55.3727 29.5044 55.4206 29.5494 55.4564 29.6035C55.4922 29.6577 55.5149 29.7194 55.5227 29.7839Z" fill="#414141"/>
<path id="Vector_16" d="M56.9206 29.4191L56.8321 29.8367H56.5262L56.415 30.3748C56.407 30.3984 56.4032 30.4232 56.4037 30.4481C56.4037 30.5165 56.4491 30.5507 56.5392 30.5507C56.5998 30.5462 56.66 30.5372 56.7193 30.5238L56.6325 30.9414C56.5046 30.961 56.3756 30.973 56.2462 30.9773C56.084 30.9773 55.9679 30.9382 55.8998 30.8592C55.835 30.7895 55.7985 30.6981 55.7975 30.6028C55.8057 30.5205 55.8195 30.4389 55.8389 30.3586L55.9476 29.8375H55.7383L55.8243 29.4199H56.0393L56.0888 29.1822L56.738 28.8566L56.6179 29.4199L56.9206 29.4191Z" fill="#414141"/>
<path id="Vector_17" d="M57.8568 29.9482L57.7594 30.3976H56.9131L57.0105 29.9482H57.8568Z" fill="#414141"/>
<path id="Vector_18" d="M59.9818 28.8379L59.8844 29.2873H58.9237L58.8426 29.6634H59.7822L59.6889 30.0891H58.7452L58.574 30.9415H57.9248L58.3727 28.8379H59.9818Z" fill="#414141"/>
<path id="Vector_19" d="M60.922 28.8379L60.4757 30.9415H59.8906L60.3385 28.8379H60.922Z" fill="#414141"/>
<path id="Vector_20" d="M62.774 29.4193L61.8116 31.1354C61.7471 31.2664 61.6546 31.3815 61.5406 31.4724C61.4453 31.5318 61.3347 31.5616 61.2225 31.5579C61.078 31.558 60.9341 31.5383 60.7949 31.4993L60.842 31.1061C60.9025 31.1309 60.9673 31.1436 61.0327 31.1435C61.1455 31.1435 61.2355 31.076 61.3013 30.9417L61.0091 29.4193H61.5828L61.664 30.4776H61.6696L62.1857 29.4193H62.774Z" fill="#414141"/>
<path id="Vector_21" d="M65.7554 29.4224L65.1493 29.455C65.1352 29.2726 65.0335 29.1814 64.8442 29.1814C64.7811 29.1773 64.7186 29.1945 64.6665 29.2303C64.6474 29.2437 64.6319 29.2615 64.621 29.2822C64.6101 29.3028 64.6043 29.3258 64.604 29.3491C64.605 29.3677 64.6101 29.3858 64.6188 29.4023C64.6274 29.4187 64.6396 29.4331 64.6543 29.4444C64.7273 29.4946 64.8075 29.5336 64.892 29.56C65.0242 29.6092 65.1529 29.6672 65.2775 29.7334C65.3735 29.785 65.4567 29.8576 65.5209 29.9458C65.5861 30.0415 65.6191 30.1556 65.615 30.2715C65.6152 30.3931 65.5796 30.512 65.5128 30.6134C65.4387 30.7245 65.3372 30.8146 65.2182 30.8747C65.0466 30.952 64.8591 30.9872 64.6713 30.9773C64.3386 30.9773 64.1033 30.913 63.9637 30.7852C63.8954 30.723 63.8414 30.6467 63.8054 30.5615C63.7694 30.4763 63.7523 30.3843 63.7552 30.2918V30.243L64.3638 30.2007C64.3587 30.2504 64.3638 30.3007 64.3787 30.3484C64.3936 30.3962 64.4181 30.4403 64.4506 30.4783C64.4838 30.5072 64.5225 30.5294 64.5642 30.5433C64.606 30.5573 64.6501 30.5629 64.694 30.5597C64.7779 30.5654 64.8612 30.5415 64.9294 30.4921C64.9536 30.4744 64.9735 30.4515 64.9875 30.425C65.0016 30.3985 65.0094 30.3691 65.0105 30.3391C65.0094 30.2939 64.9907 30.251 64.9586 30.2194C64.8831 30.1611 64.7971 30.118 64.7054 30.0924C64.3979 29.9809 64.2031 29.8791 64.1212 29.7847C64.04 29.6912 63.9966 29.5707 63.9994 29.4468C63.9986 29.3289 64.0337 29.2136 64.1001 29.1163C64.1731 29.0122 64.2749 28.9318 64.393 28.8851C64.5395 28.8269 64.6963 28.7992 64.8539 28.8037C65.4186 28.8026 65.7192 29.0088 65.7554 29.4224Z" fill="#414141"/>
<path id="Vector_22" d="M65.9843 29.8368C66.0003 29.7675 66.0301 29.7021 66.072 29.6446C66.1138 29.5871 66.1668 29.5387 66.2277 29.5022C66.3527 29.4208 66.5474 29.385 66.8103 29.385C67.1081 29.385 67.3102 29.4225 67.414 29.4974C67.4652 29.5342 67.5064 29.5833 67.5337 29.6401C67.5611 29.697 67.5738 29.7599 67.5707 29.823C67.56 29.9828 67.5328 30.141 67.4895 30.2952C67.4511 30.4368 67.4267 30.5818 67.4165 30.7283C67.4172 30.8001 67.4299 30.8714 67.4538 30.9391H66.8858C66.8725 30.8823 66.8657 30.8241 66.8655 30.7657C66.7285 30.8987 66.5457 30.9736 66.3551 30.9749C66.1636 30.9749 66.0259 30.9299 65.9421 30.8398C65.9017 30.7985 65.8698 30.7497 65.8482 30.696C65.8266 30.6424 65.8158 30.585 65.8163 30.5272C65.8126 30.4708 65.8206 30.4142 65.8399 30.3611C65.8592 30.3079 65.8893 30.2594 65.9283 30.2186C66.0058 30.1463 66.1015 30.0965 66.205 30.0745C66.3531 30.0435 66.503 30.0212 66.6537 30.0078C66.7674 29.9989 66.8803 29.9812 66.9913 29.9549C67.0009 29.9212 67.0066 29.8865 67.0083 29.8515C67.0081 29.8323 67.0026 29.8136 66.9924 29.7974C66.9823 29.7811 66.9678 29.768 66.9507 29.7595C66.9032 29.7346 66.85 29.7228 66.7965 29.7253C66.7406 29.723 66.685 29.7341 66.6343 29.7579C66.5841 29.7895 66.5458 29.8371 66.5255 29.893L65.9843 29.8368ZM66.928 30.2602C66.6575 30.3047 66.5001 30.3443 66.4557 30.379C66.435 30.3921 66.4178 30.41 66.4057 30.4313C66.3935 30.4526 66.3867 30.4766 66.3859 30.5011C66.385 30.523 66.3891 30.5447 66.3978 30.5647C66.4065 30.5848 66.4197 30.6025 66.4362 30.6167C66.4726 30.6457 66.5181 30.6607 66.5645 30.6591C66.6456 30.6561 66.7231 30.624 66.7827 30.5687C66.8657 30.4867 66.9171 30.3781 66.928 30.2618V30.2602Z" fill="#414141"/>
<path id="Vector_23" d="M69.1584 28.8673L69.0651 29.2141C68.9999 29.1907 68.9314 29.1778 68.8622 29.1758C68.8252 29.1737 68.7885 29.1843 68.7584 29.206C68.7138 29.2691 68.6859 29.3424 68.6772 29.4192H68.9531L68.8647 29.8369H68.5904L68.3583 30.9416H67.7725L68.0094 29.8369H67.7936L67.8812 29.4192H68.0987C68.1193 29.303 68.1463 29.1881 68.1798 29.0749C68.1999 29.0209 68.2311 28.9718 68.2715 28.9308C68.3169 28.8857 68.3726 28.8525 68.4338 28.8339C68.5093 28.8112 68.5879 28.8005 68.6667 28.8022C68.8324 28.8063 68.9973 28.8281 69.1584 28.8673Z" fill="#414141"/>
<path id="Vector_24" d="M70.5854 30.5508C70.5114 30.6915 70.3953 30.8054 70.2535 30.8764C70.0917 30.9482 69.9158 30.9825 69.739 30.9765C69.4399 30.9765 69.227 30.9087 69.1004 30.773C68.9748 30.6389 68.9068 30.4605 68.9113 30.2764C68.9105 30.1434 68.9408 30.0121 68.9998 29.893C69.0575 29.7754 69.1406 29.6722 69.2432 29.591C69.3309 29.5173 69.4325 29.4619 69.5418 29.4282C69.6543 29.398 69.7703 29.3837 69.8867 29.3858C70.1696 29.3858 70.3728 29.4474 70.4961 29.5706C70.556 29.6299 70.6033 29.7009 70.635 29.7791C70.6666 29.8574 70.682 29.9413 70.6803 30.0257C70.6751 30.1283 70.6624 30.2303 70.6422 30.331H69.485C69.5013 30.5345 69.5924 30.6363 69.7585 30.6363C69.8112 30.6376 69.8633 30.6258 69.9102 30.6017C69.9572 30.5777 69.9973 30.5423 70.0271 30.4987L70.5854 30.5508ZM70.0985 30.0477C70.1062 30.019 70.1098 29.9894 70.109 29.9597C70.1113 29.9272 70.1062 29.8945 70.0941 29.8642C70.0821 29.8339 70.0633 29.8067 70.0393 29.7847C69.9916 29.7441 69.9306 29.7226 69.868 29.7245C69.7944 29.7256 69.724 29.7547 69.6709 29.8059C69.6032 29.8728 69.5557 29.9574 69.5337 30.0501L70.0985 30.0477Z" fill="#414141"/>
<path id="Vector_25" d="M0.978877 27.1208H3.75889C3.75889 27.1208 4.34639 26.9466 4.61741 26.2302L5.32904 23.5836H3.65584L2.96368 26.1374C2.96368 26.1374 2.85494 26.4753 2.56526 26.4394C2.51679 26.4382 2.46926 26.4259 2.42636 26.4032C2.38345 26.3806 2.34633 26.3483 2.3179 26.3089C2.28947 26.2695 2.2705 26.2241 2.26245 26.1761C2.2544 26.1281 2.25751 26.0789 2.27152 26.0324L2.91661 23.5852H1.33429L0.582079 26.2318C0.582079 26.2318 0.449814 26.8269 0.978877 27.1208Z" fill="#C82323"/>
<path id="Vector_26" d="M48.8101 27.1208L48.9886 26.4036L49.3067 27.1208H51.4092L50.9612 25.9949C51.8904 25.2346 51.8336 24.3603 51.8336 24.3603C51.8579 23.8718 51.6997 23.6699 51.5577 23.5836H48.0871L47.1426 27.1208H48.8101ZM49.4974 24.5157H49.8763C50.3332 24.7144 49.8033 25.1882 49.8033 25.1882H49.331L49.4974 24.5157Z" fill="#1E417D"/>
<path id="Vector_27" d="M55.0496 27.1208L55.349 26.1024H53.877L54.5879 23.5836H52.9406L51.9961 27.1208H55.0496Z" fill="#1E417D"/>
<path id="Vector_28" d="M46.5118 27.1208L47.4612 23.5836H45.8983L44.9668 27.1208H46.5118Z" fill="#1E417D"/>
<path id="Vector_29" d="M59.363 27.1208L59.7095 25.8696L60.0357 27.1208H61.7097L62.6607 23.5836H60.9672L60.6313 24.9016L60.3262 23.5836H58.7982L57.8545 27.1208H59.363Z" fill="#1E417D"/>
<path id="Vector_30" d="M66.5545 25.6369H68.7202C68.7202 25.6369 68.6277 26.4111 68.1522 26.4396C68.1522 26.4396 67.8276 26.4974 67.852 26.0668H66.165C66.165 26.0668 66.0432 26.8483 66.5869 27.121H69.3458C69.5288 27.0501 69.6953 26.9422 69.8349 26.804C69.9745 26.6657 70.0842 26.5002 70.1573 26.3175L70.4145 25.3406C70.4145 25.3406 70.5143 24.9857 70.2522 24.971H68.1084C68.1084 24.971 68.1295 24.3263 68.6585 24.2685C68.7044 24.271 68.7493 24.2831 68.7902 24.3041C68.8312 24.3251 68.8673 24.3544 68.8962 24.3902C68.9252 24.426 68.9464 24.4675 68.9584 24.512C68.9704 24.5565 68.9731 24.6031 68.9661 24.6486H70.5954C70.5954 24.6486 70.731 23.916 70.2903 23.5854H67.4503C67.0476 23.783 66.7378 24.1307 66.5869 24.5542L66.3873 25.4359C66.3873 25.4359 66.3621 25.6435 66.5545 25.6369Z" fill="#1E417D"/>
<path id="Vector_31" d="M65.3591 27.1208L65.6285 26.1333H64.1866L64.2507 25.8264H65.7121L65.9498 24.9554H64.5022L64.5671 24.6484H66.0334L66.3239 23.5836H63.212L62.2959 27.1208H65.3591Z" fill="#1E417D"/>
<path id="Vector_32" d="M57.2227 27.1208L58.1721 23.5836H56.6093L55.6777 27.1208H57.2227Z" fill="#1E417D"/>
<path id="Vector_33" d="M5.59566 25.6369H7.76142C7.76142 25.6369 7.66891 26.4111 7.19341 26.4396C7.19341 26.4396 6.86882 26.4974 6.89317 26.0668H5.20698C5.20698 26.0668 5.08527 26.8483 5.62812 27.121H8.39434C8.57732 27.0501 8.74379 26.9422 8.8834 26.804C9.023 26.6657 9.13274 26.5002 9.20579 26.3175L9.46302 25.3406C9.46302 25.3406 9.56283 24.9857 9.30073 24.971H7.15689C7.15689 24.971 7.17799 24.3263 7.70705 24.2685C7.75294 24.271 7.7978 24.2831 7.83874 24.3041C7.87968 24.3251 7.91579 24.3544 7.94476 24.3902C7.97372 24.426 7.9949 24.4675 8.00692 24.512C8.01895 24.5565 8.02156 24.6031 8.01459 24.6486H9.64397C9.64397 24.6486 9.77867 23.916 9.33887 23.5854H6.4988C6.09893 23.785 5.7924 24.1331 5.64435 24.5558L5.44474 25.4375C5.44474 25.4375 5.40416 25.6435 5.59566 25.6369Z" fill="#C82323"/>
<path id="Vector_34" d="M22.1401 27.1208L22.4858 25.8696L22.8128 27.1208H24.4869L25.4379 23.5836H23.7444L23.4076 24.9016L23.1033 23.5836H21.5746L20.6309 27.1208H22.1401Z" fill="#C82323"/>
<path id="Vector_35" d="M25.5959 27.121H29.3286V26.1384L29.5103 25.4253H27.5629L27.3478 26.2036H27.5913C27.5648 26.2711 27.52 26.3298 27.4619 26.373C27.4038 26.4162 27.3347 26.4421 27.2626 26.4478C27.2626 26.4478 26.891 26.4551 26.9591 25.9781L27.3267 24.5941C27.3636 24.4985 27.4285 24.4162 27.5127 24.3581C27.597 24.3 27.6967 24.2688 27.799 24.2685C27.799 24.2685 28.0489 24.2685 28.0635 24.5624L27.9702 24.8921H29.6426L29.7432 24.5624C29.7432 24.5624 29.9574 23.8688 29.3464 23.5781H26.568C26.3984 23.6367 26.0544 23.8224 25.8223 24.3686L25.3078 26.2296C25.3078 26.2296 25.1902 26.8019 25.5959 27.121Z" fill="#C82323"/>
<path id="Vector_36" d="M14.9089 27.1208C15.0517 27.1208 15.2189 26.958 15.3041 26.8619C15.6636 26.4696 15.8299 25.8688 15.7796 25.3388C15.7796 25.3388 16.5716 24.2129 15.8364 23.5836H12.3829L11.4521 27.1208H14.9089ZM13.8135 24.4522H14.1924C14.6492 24.6501 14.1202 25.1247 14.1202 25.1247H13.6471L13.8135 24.4522ZM13.523 25.5627H13.9141C14.3855 25.767 13.8386 26.2571 13.8386 26.2571H13.3517L13.523 25.5627Z" fill="#C82323"/>
<path id="Vector_37" d="M17.6579 27.1208L17.9825 25.8859H18.7128L18.398 27.1208H20.042L20.7333 24.4742C20.7333 24.4742 20.8656 23.8775 20.3365 23.5836H17.5557C17.5557 23.5836 17.012 23.7733 16.7443 24.4889L16.0537 27.1208H17.6579ZM18.3298 24.567C18.3298 24.567 18.4377 24.2292 18.7274 24.265C18.776 24.2661 18.8236 24.2784 18.8666 24.301C18.9096 24.3236 18.9468 24.3558 18.9753 24.3952C19.0039 24.4346 19.0229 24.4801 19.031 24.5282C19.0391 24.5762 19.036 24.6254 19.022 24.6721L18.9473 24.9643H18.226L18.3298 24.567Z" fill="#C82323"/>
<path id="Vector_38" d="M11.4493 25.063H10.082L9.84668 25.9503H11.2188L11.4493 25.063Z" fill="#C82323"/>
<path id="Vector_39" d="M41.9732 27.1208L42.2978 25.8859H43.0281L42.7132 27.1208H44.3532L45.0445 24.4742C45.0445 24.4742 45.1768 23.8775 44.6477 23.5836H41.8702C41.8702 23.5836 41.3265 23.7733 41.0587 24.4889L40.3682 27.1208H41.9732ZM42.6451 24.567C42.6451 24.567 42.753 24.2292 43.0427 24.265C43.0912 24.2661 43.1389 24.2784 43.1819 24.301C43.2249 24.3236 43.2621 24.3558 43.2906 24.3952C43.3191 24.4346 43.3382 24.4801 43.3463 24.5282C43.3544 24.5762 43.3513 24.6254 43.3372 24.6721L43.2626 24.9643H42.5404L42.6451 24.567Z" fill="#1E417D"/>
<path id="Vector_40" d="M32.9716 27.1208L33.2718 26.1024H31.7991L32.5107 23.5836H30.8627L29.9189 27.1208H32.9716Z" fill="#C82323"/>
<path id="Vector_41" d="M35.209 27.1208L35.5336 25.8859H36.2639L35.9483 27.1208H37.5923L38.2836 24.4742C38.2836 24.4742 38.4159 23.8775 37.8868 23.5836H35.1035C35.1035 23.5836 34.5591 23.7733 34.2921 24.4889L33.6016 27.1208H35.209ZM35.8809 24.567C35.8809 24.567 35.9896 24.2292 36.2785 24.265C36.3271 24.2661 36.3747 24.2784 36.4177 24.301C36.4607 24.3236 36.4979 24.3558 36.5264 24.3952C36.555 24.4346 36.574 24.4801 36.5821 24.5282C36.5902 24.5762 36.5871 24.6254 36.5731 24.6721L36.4984 24.9643H35.7762L35.8809 24.567Z" fill="#C82323"/>
<path id="Vector_42" d="M36.6233 8.94157L36.2151 8.6314L35.7485 8.84062L35.9165 8.35624L35.5732 7.97525L36.0853 7.98583L36.3401 7.54053L36.4886 8.03224L36.9884 8.13807L36.5681 8.43114L36.6233 8.94157Z" fill="white"/>
<path id="Vector_43" d="M32.3129 3.15507L31.9055 2.8449L31.4381 3.05412L31.6061 2.56974L31.2637 2.18875L31.7757 2.19933L32.0305 1.75403L32.1782 2.24574L32.6788 2.35157L32.2585 2.64464L32.3129 3.15507Z" fill="white"/>
<path id="Vector_44" d="M29.4838 11.4157L29.0764 11.1055L28.609 11.3147L28.777 10.8304L28.4346 10.4494L28.9458 10.46L29.2014 10.0146L29.3491 10.5064L29.8497 10.6122L29.4294 10.9053L29.4838 11.4157Z" fill="white"/>
<path id="Vector_45" d="M37.6688 5.20747L37.3109 4.86799L36.8427 5.02023L37.0537 4.57411L36.7656 4.17439L37.2533 4.23789L37.543 3.83899L37.6339 4.32418L38.1013 4.47723L37.6696 4.71413L37.6688 5.20747Z" fill="white"/>
<path id="Vector_46" d="M39.735 2.61286L39.3398 2.31816L38.8927 2.52493L39.0501 2.05683L38.7158 1.69375L39.2084 1.69945L39.4494 1.2688L39.5962 1.73934L40.079 1.83622L39.6774 2.12196L39.735 2.61286Z" fill="white"/>
<path id="Vector_47" d="M46.7252 5.36627L46.3301 5.07157L45.8829 5.27835L46.0396 4.81025L45.7061 4.44798L46.1986 4.45287L46.4388 4.02222L46.5865 4.49357L47.0685 4.58963L46.6676 4.87619L46.7252 5.36627Z" fill="white"/>
<path id="Vector_48" d="M42.1455 7.01639L41.7893 6.67529L41.3211 6.82426L41.5345 6.37977L41.248 5.97843L41.7357 6.04437L42.0278 5.64709L42.1155 6.1331L42.5821 6.28941L42.1488 6.52305L42.1455 7.01639Z" fill="white"/>
<path id="Vector_49" d="M45.6406 2.62515L45.2852 2.28405L44.8162 2.43303L45.0296 1.98854L44.7432 1.58638L45.2308 1.65313L45.5238 1.25586L45.6114 1.74187L46.078 1.89817L45.6439 2.13182L45.6406 2.62515Z" fill="white"/>
<path id="Vector_50" d="M52.1056 2.77823L51.7502 2.43713L51.2812 2.5861L51.4946 2.14161L51.209 1.73945L51.6967 1.80621L51.9888 1.40894L52.0764 1.89494L52.543 2.05125L52.1097 2.28489L52.1056 2.77823Z" fill="white"/>
</g>
<defs>
<linearGradient id="paint0_linear_407_2684" x1="8.49106" y1="10.3662" x2="58.5811" y2="8.82702" gradientUnits="userSpaceOnUse">
<stop stop-color="#05508C"/>
<stop offset="0.5" stop-color="#0095DB"/>
<stop offset="1" stop-color="#05508C"/>
</linearGradient>
<linearGradient id="paint1_linear_407_2684" x1="14.7738" y1="11.6396" x2="31.286" y2="9.54451" gradientUnits="userSpaceOnUse">
<stop offset="0.01" stop-color="#009756"/>
<stop offset="1" stop-color="#008C4F"/>
</linearGradient>
<linearGradient id="paint2_linear_407_2684" x1="10.5925" y1="4.31518" x2="36.1969" y2="4.63547" gradientUnits="userSpaceOnUse">
<stop stop-color="#141E4B"/>
<stop offset="0.5" stop-color="#1E468C"/>
<stop offset="1" stop-color="#141E4B"/>
</linearGradient>
<linearGradient id="paint3_linear_407_2684" x1="8.58666" y1="19.3261" x2="55.1932" y2="4.24774" gradientUnits="userSpaceOnUse">
<stop stop-color="#141E4B"/>
<stop offset="0.5" stop-color="#1E468C"/>
<stop offset="1" stop-color="#141E4B"/>
</linearGradient>
<linearGradient id="paint4_linear_407_2684" x1="7.39043" y1="19.0331" x2="35.346" y2="4.73664" gradientUnits="userSpaceOnUse">
<stop offset="0.01" stop-color="#008C41"/>
<stop offset="1" stop-color="#0A4B23"/>
</linearGradient>
<linearGradient id="paint5_linear_407_2684" x1="14.1408" y1="5.31808" x2="24.2709" y2="9.55391" gradientUnits="userSpaceOnUse">
<stop offset="0.01" stop-color="#008C41"/>
<stop offset="1" stop-color="#0A4B23"/>
</linearGradient>
<linearGradient id="paint6_linear_407_2684" x1="11.806" y1="9.41444" x2="19.8467" y2="9.41444" gradientUnits="userSpaceOnUse">
<stop offset="0.01" stop-color="#F61423"/>
<stop offset="1" stop-color="#AC1E23"/>
</linearGradient>
</defs>
</svg>
